HIERARCHY
ROOT Hips
{
	OFFSET -0.001795 -0.223333 0.028219
	CHANNELS 6 Xposition Yposition Zposition Zrotation Yrotation Xrotation 
	JOINT LeftUpLeg
	{
		OFFSET 0.069520 -0.091406 -0.006815
		CHANNELS 3 Zrotation Yrotation Xrotation
		JOINT LeftLeg
		{
			OFFSET 0.034277 -0.375199 -0.004496
			CHANNELS 3 Zrotation Yrotation Xrotation
			JOINT LeftFoot
			{
				OFFSET -0.013596 -0.397961 -0.043693
				CHANNELS 3 Zrotation Yrotation Xrotation
				JOINT LeftToe
				{
					OFFSET 0.026358 -0.055791 0.119288
					CHANNELS 3 Zrotation Yrotation Xrotation
					End Site
					{
						OFFSET 0.000000 0.000000 0.000000
					}
				}
			}
		}
	}
	JOINT RightUpLeg
	{
		OFFSET -0.067670 -0.090522 -0.004320
		CHANNELS 3 Zrotation Yrotation Xrotation
		JOINT RightLeg
		{
			OFFSET -0.038290 -0.382569 -0.008850
			CHANNELS 3 Zrotation Yrotation Xrotation
			JOINT RightFoot
			{
				OFFSET 0.015774 -0.398415 -0.042312
				CHANNELS 3 Zrotation Yrotation Xrotation
				JOINT RightToe
				{
					OFFSET -0.025372 -0.048144 0.123348
					CHANNELS 3 Zrotation Yrotation Xrotation
					End Site
					{
						OFFSET 0.000000 0.000000 0.000000
					}
				}
			}
		}
	}
	JOINT Spine
	{
		OFFSET -0.002533 0.108963 -0.026696
		CHANNELS 3 Zrotation Yrotation Xrotation
		JOINT Spine1
		{
			OFFSET 0.005487 0.135180 0.001092
			CHANNELS 3 Zrotation Yrotation Xrotation
			JOINT Spine2
			{
				OFFSET 0.001457 0.052922 0.025425
				CHANNELS 3 Zrotation Yrotation Xrotation
				JOINT Neck
				{
					OFFSET -0.002778 0.213870 -0.042857
					CHANNELS 3 Zrotation Yrotation Xrotation
					JOINT Head
					{
						OFFSET 0.005152 0.064970 0.051349
						CHANNELS 3 Zrotation Yrotation Xrotation
						End Site
						{
							OFFSET 0.000000 0.000000 0.000000
						}
					}
				}
				JOINT LeftShoulder
				{
					OFFSET 0.078845 0.121749 -0.034090
					CHANNELS 3 Zrotation Yrotation Xrotation
					JOINT LeftArm
					{
						OFFSET 0.090977 0.030469 -0.008868
						CHANNELS 3 Zrotation Yrotation Xrotation
						JOINT LeftForeArm
						{
							OFFSET 0.259612 -0.012772 -0.027456
							CHANNELS 3 Zrotation Yrotation Xrotation
							JOINT LeftHand
							{
								OFFSET 0.249234 0.008986 -0.001171
								CHANNELS 3 Zrotation Yrotation Xrotation
								End Site
								{
									OFFSET 0.000000 0.000000 0.000000
								}
							}
						}
					}
				}
				JOINT RightShoulder
				{
					OFFSET -0.081759 0.118833 -0.038615
					CHANNELS 3 Zrotation Yrotation Xrotation
					JOINT RightArm
					{
						OFFSET -0.096012 0.032551 -0.009143
						CHANNELS 3 Zrotation Yrotation Xrotation
						JOINT RightForeArm
						{
							OFFSET -0.253742 -0.013329 -0.021401
							CHANNELS 3 Zrotation Yrotation Xrotation
							JOINT RightHand
							{
								OFFSET -0.255298 0.007772 -0.005559
								CHANNELS 3 Zrotation Yrotation Xrotation
								End Site
								{
									OFFSET 0.000000 0.000000 0.000000
								}
							}
						}
					}
				}
			}
		}
	}
}
MOTION
Frames: 6
Frame Time: 0.050000
0.029827 0.940091 0.827207 -1.730772 3.243086 4.308974 3.249205 -0.170278 -1.249787 -1.404902 0.156481 -0.652999 4.999171 11.322187 3.926938 0.000000 0.000000 0.000000 1.785967 0.363781 -3.521202 -2.156350 0.437427 3.551201 -2.658547 -8.189280 5.304581 0.000000 0.000000 0.000000 3.338952 0.465268 -8.200595 2.963925 -1.180747 -3.428588 -4.959396 3.697576 12.086483 6.100002 -1.344940 -20.528466 0.000000 0.000000 0.000000 9.223981 -15.437483 4.954968 -0.954077 -47.959854 -3.699764 112.185617 -19.157173 -28.754233 0.000000 0.000000 0.000000 9.024159 2.221788 1.033311 64.840695 -1.212544 -7.077589 4.023567 30.793028 2.678918 0.000000 0.000000 0.000000 
0.029722 0.940280 0.826249 -1.747540 3.090025 4.308002 3.297070 -0.182589 -1.451776 -1.439256 0.153935 -0.368593 5.173894 11.644847 3.934682 0.000000 0.000000 0.000000 1.866872 0.383641 -3.696521 -2.170185 0.451648 3.774822 -2.782860 -8.449035 5.201490 0.000000 0.000000 0.000000 3.208994 0.462391 -8.219975 3.037388 -1.212206 -3.468091 -4.935329 3.566306 12.013275 5.887373 -1.268789 -20.362199 0.000000 0.000000 0.000000 9.786293 -15.121782 4.860044 -0.597418 -48.206661 -3.831490 111.831959 -18.101158 -27.074701 0.000000 0.000000 0.000000 8.616202 2.245008 1.009230 65.267858 -1.305285 -7.157973 3.088911 30.986719 2.449088 0.000000 0.000000 0.000000 
0.029572 0.940575 0.825361 -1.699721 2.888890 4.398458 3.268264 -0.195262 -1.674618 -1.636990 0.170784 -0.215710 5.382450 12.071621 4.144406 0.000000 0.000000 0.000000 1.811650 0.417401 -4.000487 -2.027934 0.454109 4.197884 -2.863059 -8.633983 5.184444 0.000000 0.000000 0.000000 3.124934 0.465092 -8.308903 3.017745 -1.199823 -3.545666 -4.907799 3.418532 11.974232 5.670974 -1.180889 -20.317616 0.000000 0.000000 0.000000 10.216229 -14.943037 4.794169 -0.099829 -48.171433 -3.969136 111.684978 -17.237852 -25.731070 0.000000 0.000000 0.000000 8.259387 1.931907 0.832279 65.385842 -1.598587 -7.332547 2.978384 30.960717 2.402747 0.000000 0.000000 0.000000 
0.029362 0.940543 0.824659 -1.681764 3.055469 4.485274 3.368483 -0.208309 -1.838767 -1.940773 0.197157 -0.045114 5.480321 12.196506 3.874032 0.000000 0.000000 0.000000 1.774382 0.430887 -4.115488 -1.949522 0.449112 4.322359 -2.986661 -8.877262 5.091028 0.000000 0.000000 0.000000 2.945656 0.453736 -8.308809 3.202871 -1.269245 -3.697724 -4.934539 3.232485 11.928134 5.203975 -0.923673 -20.273759 0.000000 0.000000 0.000000 10.446354 -14.545206 4.694820 0.590406 -48.592851 -4.259337 111.453995 -16.589571 -24.713099 0.000000 0.000000 0.000000 8.036302 1.691097 0.712680 65.508624 -1.928328 -7.514710 2.661627 31.251857 2.346157 0.000000 0.000000 0.000000 
0.029091 0.940474 0.824101 -1.601805 3.063574 4.464347 3.352046 -0.219411 -2.028795 -2.176077 0.217088 0.183866 5.639164 12.499440 3.926536 0.000000 0.000000 0.000000 1.702608 0.423198 -4.051919 -1.852162 0.445523 4.528934 -3.243920 -9.425428 4.990187 0.000000 0.000000 0.000000 2.843974 0.451075 -8.346355 3.283543 -1.302590 -3.727221 -4.960772 3.249739 11.774982 4.985852 -0.822701 -20.028711 0.000000 0.000000 0.000000 10.639936 -14.325583 4.646917 1.540743 -48.899783 -4.650170 111.273906 -15.999244 -23.864118 0.000000 0.000000 0.000000 8.074902 1.542057 0.647505 65.492144 -2.162498 -7.624889 2.441273 31.201134 2.282693 0.000000 0.000000 0.000000 
0.028826 0.940346 0.823691 -1.509466 3.367910 4.357319 3.428669 -0.223292 -2.063512 -2.376621 0.234521 0.289584 5.734998 12.679655 3.945986 0.000000 0.000000 0.000000 1.696630 0.398749 -3.825194 -1.858163 0.442956 4.467613 -3.392680 -9.761706 5.104219 0.000000 0.000000 0.000000 2.687777 0.435754 -8.259847 3.387516 -1.328242 -3.970545 -5.051406 3.256288 11.685132 4.542273 -0.528269 -20.103727 0.000000 0.000000 0.000000 10.898627 -14.241627 4.642299 2.047591 -49.176204 -4.911030 111.121213 -15.738323 -23.556154 0.000000 0.000000 0.000000 8.190950 1.331471 0.574085 65.579910 -2.380818 -7.724422 2.427241 31.144379 2.284805 0.000000 0.000000 0.000000 
